<svg width="17" height="16" viewBox="0 0 17 16" fill="none" xmlns="http://www.w3.org/2000/svg">
<path d="M11.7703 0.0846692C11.7477 -0.0282231 11.5863 -0.028223 11.5638 0.0846693C11.3136 1.33549 10.3359 2.31322 9.08504 2.56339C8.97214 2.58597 8.97214 2.74737 9.08504 2.76995C10.3359 3.02011 11.3136 3.99784 11.5638 5.24866C11.5863 5.36156 11.7477 5.36156 11.7703 5.24866C12.0205 3.99784 12.9982 3.02011 14.249 2.76995C14.3619 2.74737 14.3619 2.58597 14.249 2.56339C12.9982 2.31322 12.0205 1.33549 11.7703 0.0846692Z" fill="#273142"/>
<path d="M5.46015 2.83599C5.5053 2.61021 5.82811 2.61021 5.87327 2.83599C6.3736 5.33765 8.32905 7.2931 10.8307 7.79343C11.0565 7.83859 11.0565 8.16139 10.8307 8.20655C8.32905 8.70688 6.3736 10.6623 5.87327 13.164C5.82811 13.3898 5.5053 13.3898 5.46015 13.164C4.95982 10.6623 3.00436 8.70688 0.502713 8.20655C0.276928 8.16139 0.276928 7.83859 0.502713 7.79343C3.00436 7.2931 4.95982 5.33765 5.46015 2.83599Z" fill="#273142"/>
<path d="M12.8706 9.43918C12.8988 9.29806 13.1006 9.29806 13.1288 9.43918C13.4415 11.0027 14.6637 12.2249 16.2272 12.5376C16.3683 12.5658 16.3683 12.7676 16.2272 12.7958C14.6637 13.1085 13.4415 14.3306 13.1288 15.8942C13.1006 16.0353 12.8988 16.0353 12.8706 15.8942C12.5579 14.3306 11.3358 13.1085 9.77222 12.7958C9.6311 12.7676 9.6311 12.5658 9.77222 12.5376C11.3358 12.2249 12.5579 11.0027 12.8706 9.43918Z" fill="#273142"/>
</svg>
