<svg width="24" height="24" viewBox="0 0 24 24" fill="none" xmlns="http://www.w3.org/2000/svg">
<path fill-rule="evenodd" clip-rule="evenodd" d="M18.1172 1C18.9456 1 19.6172 1.67158 19.6172 2.50001V21.4992C19.6172 22.3277 18.9456 22.9992 18.1172 22.9992C17.2888 22.9992 16.6172 22.3277 16.6172 21.4992V2.50001C16.6172 1.67158 17.2888 1 18.1172 1Z" fill="currentColor"/>
<path fill-rule="evenodd" clip-rule="evenodd" d="M23.5467 15.9256C24.1401 16.5036 24.1525 17.4533 23.5745 18.0467L19.1912 22.5467C18.9135 22.8317 18.534 22.9947 18.1361 22.9999C17.7382 23.005 17.3546 22.8519 17.0697 22.5742L12.453 18.0742C11.8598 17.496 11.8476 16.5463 12.4258 15.9531C13.0041 15.3598 13.9537 15.3477 14.547 15.9259L18.0892 19.3785L21.4255 15.9534C22.0036 15.36 22.9532 15.3475 23.5467 15.9256Z" fill="currentColor"/>
<path fill-rule="evenodd" clip-rule="evenodd" d="M6.11645 1.00073C6.94488 1.00073 7.61645 1.67231 7.61645 2.50074V21.5C7.61645 22.3284 6.94488 23 6.11645 23C5.28803 23 4.61645 22.3284 4.61645 21.5V2.50074C4.61645 1.67231 5.28803 1.00073 6.11645 1.00073Z" fill="currentColor"/>
<path fill-rule="evenodd" clip-rule="evenodd" d="M6.13611 1.00013C6.53399 1.00528 6.91352 1.16832 7.19116 1.45336L11.5745 5.95338C12.1525 6.54681 12.1401 7.49648 11.5466 8.07453C10.9532 8.65257 10.0035 8.6401 9.4255 8.04667L6.08916 4.62151L2.547 8.07418C1.95377 8.65242 1.0041 8.64027 0.425855 8.04703C-0.152387 7.45379 -0.140235 6.50412 0.453 5.92588L5.06967 1.42586C5.35461 1.14811 5.73823 0.994968 6.13611 1.00013Z" fill="currentColor"/>
</svg>
