<svg width="24" height="24" viewBox="0 0 24 24" fill="none" xmlns="http://www.w3.org/2000/svg">
<path fill-rule="evenodd" clip-rule="evenodd" d="M18 0C18.8284 0 19.5 0.671573 19.5 1.5V3H20C22.2091 3 24 4.79086 24 7V20C24 22.2091 22.2091 24 20 24H4C1.79086 24 0 22.2091 0 20V7C0 4.79086 1.79086 3 4 3H4.5V1.5C4.5 0.671573 5.17157 0 6 0C6.82843 0 7.5 0.671573 7.5 1.5V3H16.5V1.5C16.5 0.671573 17.1716 0 18 0ZM8.73145 8.60059C8.62878 8.60059 8.53951 8.63291 8.46484 8.69824C8.39961 8.76355 8.36719 8.84761 8.36719 8.9502V10.3506C8.36729 10.453 8.39962 10.5417 8.46484 10.6162C8.53951 10.6815 8.62878 10.7139 8.73145 10.7139H12.917L9.68262 17.9658C9.664 18.0124 9.65532 18.0545 9.65527 18.0918C9.65527 18.1758 9.68326 18.2511 9.73926 18.3164C9.79521 18.3722 9.86536 18.4004 9.94922 18.4004H11.7549C11.9041 18.4004 12.0162 18.3582 12.0908 18.2744C12.1654 18.1905 12.2171 18.1204 12.2451 18.0645L15.4795 10.8262C15.5261 10.7329 15.5628 10.6392 15.5908 10.5459C15.6188 10.4526 15.6328 10.3361 15.6328 10.1963V8.9502C15.6328 8.84761 15.6004 8.76355 15.5352 8.69824C15.4698 8.63291 15.3806 8.60059 15.2686 8.60059H8.73145Z" fill="currentColor"/>
</svg>
