<svg width="24" height="24" viewBox="0 0 24 24" fill="none" xmlns="http://www.w3.org/2000/svg">
<path d="M10.5 12C13.8311 12 16.5 9.32993 16.5 6C16.5 2.67007 13.8311 0 10.5 0C7.17007 0 4.5 2.67007 4.5 6C4.5 9.32993 7.17007 12 10.5 12Z" fill="currentColor"/>
<path d="M10.6704 13.5009C10.56 13.8134 10.5 14.1497 10.5 14.5V20.5C10.5 21.8062 11.3348 22.9175 12.5 23.3293V23.9946C11.8465 24 11.177 24 10.5 24C5 24 0 23.4167 0 21.0833C0 16.4339 4.83706 13.5 10.5 13.5C10.5569 13.5 10.6137 13.5003 10.6704 13.5009Z" fill="currentColor"/>
<path fill-rule="evenodd" clip-rule="evenodd" d="M14 13C12.8954 13 12 13.8954 12 15V20C12 21.1046 12.8954 22 14 22L14 23.635C14 23.8366 14.1634 24 14.365 24C14.4521 24 14.5364 23.9688 14.6025 23.9121L16.8333 22H22C23.1046 22 24 21.1046 24 20V15C24 13.8954 23.1046 13 22 13H14ZM15 18.25C15.4142 18.25 15.75 17.9142 15.75 17.5C15.75 17.0858 15.4142 16.75 15 16.75C14.5858 16.75 14.25 17.0858 14.25 17.5C14.25 17.9142 14.5858 18.25 15 18.25ZM18 18.25C18.4142 18.25 18.75 17.9142 18.75 17.5C18.75 17.0858 18.4142 16.75 18 16.75C17.5858 16.75 17.25 17.0858 17.25 17.5C17.25 17.9142 17.5858 18.25 18 18.25ZM21.7501 17.5C21.7501 17.9142 21.4143 18.25 21.0001 18.25C20.5859 18.25 20.2501 17.9142 20.2501 17.5C20.2501 17.0858 20.5859 16.75 21.0001 16.75C21.4143 16.75 21.7501 17.0858 21.7501 17.5Z" fill="currentColor"/>
</svg>
