<svg width="24" height="24" viewBox="0 0 24 24" fill="none" xmlns="http://www.w3.org/2000/svg">
<path fill-rule="evenodd" clip-rule="evenodd" d="M24 4C24 1.79086 22.2091 0 20 0L4 0C1.79086 0 0 1.79086 0 4V20C0 22.2091 1.79086 24 4 24H20C22.2091 24 24 22.2091 24 20V4ZM8.94319 13L10.5 13V6C10.5 5.44772 10.9477 5 11.5 5H12.5C13.0523 5 13.5 5.44772 13.5 6V13H15.0568C15.8702 13 16.3433 13.9194 15.8705 14.5812L12.8137 18.8608C12.4149 19.4191 11.5851 19.4191 11.1863 18.8608L8.12945 14.5812C7.65669 13.9194 8.12981 13 8.94319 13Z" fill="currentColor"/>
</svg>
