<svg width="24" height="24" viewBox="0 0 24 24" fill="none" xmlns="http://www.w3.org/2000/svg">
<g clip-path="url(#clip0_250_2392)">
<path fill-rule="evenodd" clip-rule="evenodd" d="M21.5837 13.7145C18.2871 12.8832 16.8867 8.81373 20.7905 7.79635C21.6828 9.68222 21.9679 11.6425 21.5837 13.7145ZM16.3414 16.3572C15.5978 17.5607 14.532 18.5533 14.3957 20.067C14.1974 20.8238 13.9991 21.7171 13.0077 21.6923C11.3718 21.4565 12.3384 19.2233 11.3718 18.2431C10.6158 17.4242 10.3803 16.4441 10.5043 15.3399C10.4671 13.8634 9.07903 13.4912 7.98844 12.8708C5.91879 11.8783 4.6423 10.0296 3.45256 8.15616C3.0312 6.49361 5.48503 4.89309 6.60041 3.92534C8.88074 1.69206 8.9551 4.96753 10.3555 3.65238C10.6406 1.34466 13.9619 3.76405 12.9333 5.11642C11.3718 5.91047 13.144 6.53083 12.1897 7.33729C10.4423 7.49858 10.3555 8.47874 11.285 9.79388C11.6072 11.0222 10.2936 10.2902 9.84743 9.89314C9.20296 9.76907 6.87306 10.3026 7.71579 11.2455C8.39741 12.0272 9.51279 11.717 10.244 12.3249C10.5414 12.6351 10.7397 13.0942 11.0867 13.3423C13.0696 13.8882 17.085 12.722 16.3414 16.3572ZM23.9508 10.9229C23.579 6.53083 20.7781 2.70944 16.7752 0.97245C14.0239 -0.21863 11 -0.379923 7.7034 0.848379C6.34016 1.35707 5.06367 2.1015 3.98547 3.06925C1.49446 5.29012 0.143609 8.20578 0.00728455 11.7046C-0.067074 13.8014 0.42865 15.9106 1.45728 17.7344C3.26667 20.9106 5.91879 22.8958 9.3021 23.6898C9.92179 23.8387 10.5662 23.8883 11.1983 23.9752C11.2478 23.9876 11.285 23.9876 11.3222 24H12.6854C12.8342 23.9876 12.9829 23.9628 13.1316 23.9504C14.9534 23.7395 16.7504 23.2184 18.2871 22.2258C21.1127 20.4268 22.9221 17.9205 23.6905 14.7071C23.9879 13.4664 24.0623 12.2009 23.9508 10.9229Z" fill="currentColor"/>
</g>
<defs>
<clipPath id="clip0_250_2392">
<rect width="24" height="24" fill="currentColor"/>
</clipPath>
</defs>
</svg>
