<svg width="24" height="24" viewBox="0 0 24 24" fill="none" xmlns="http://www.w3.org/2000/svg">
<path fill-rule="evenodd" clip-rule="evenodd" d="M19.2 0H0V21C0 22.6569 1.34314 24 3 24H9.62698C7.40893 22.1289 6 19.329 6 16.2C6 15.0822 6.1798 14.0064 6.51205 13H5.2499C4.55955 13 3.9999 12.4404 3.9999 11.75C3.9999 11.0596 4.55955 10.5 5.2499 10.5H7.74003C9.57279 7.78514 12.6779 6 16.2 6C17.2441 6 18.2515 6.15687 19.2 6.44832V0ZM3.99996 5.74994C4 5.0596 4.55963 4.5 5.24996 4.5H8.74996C9.44034 4.5 10 5.05968 9.99996 5.75006C9.99993 6.44039 9.4403 7 8.74996 7H5.24996C4.55958 7 3.99993 6.44032 3.99996 5.74994Z" fill="currentColor"/>
<path d="M16.6625 13.9837L17.6366 13.0074L18.9838 14.3567L18.0102 15.3326L16.6625 13.9837Z" fill="currentColor"/>
<path fill-rule="evenodd" clip-rule="evenodd" d="M24 16C24 20.4183 20.4183 24 16 24C11.5817 24 8 20.4183 8 16C8 11.5817 11.5817 8 16 8C20.4183 8 24 11.5817 24 16ZM16.9746 12.2538L12.4765 16.7585C12.314 16.9213 12.2125 17.1376 12.1915 17.3664L12.0019 19.4543C11.9889 19.602 12.0415 19.7482 12.1465 19.8528C12.241 19.9474 12.3685 20 12.5 20C12.5155 20 12.5305 19.9995 12.5455 19.998L14.6308 19.8082C14.8598 19.7872 15.0753 19.6861 15.2379 19.5238L19.7369 15.0192C20.1005 14.6536 20.0855 14.0433 19.7029 13.6598L18.3332 12.2889C18.1417 12.0971 17.8777 12 17.6202 12C17.3796 12 17.1436 12.0841 16.9746 12.2538Z" fill="currentColor"/>
</svg>
