<svg width="24" height="24" viewBox="0 0 24 24" fill="none" xmlns="http://www.w3.org/2000/svg">
<path d="M17.6289 1C18.6505 1 19.6025 1.52 20.1542 2.37988L23.8417 8.12695C24.0762 8.49258 24.0477 8.96762 23.7714 9.30273L12.7714 22.6367C12.5815 22.8669 12.2984 23 11.9999 23C11.7015 23 11.4184 22.8669 11.2285 22.6367L0.228461 9.30273C-0.0478307 8.96762 -0.07627 8.49258 0.158149 8.12695L3.84565 2.37988C4.39741 1.51999 5.34935 0.999998 6.37104 1H17.6289ZM11.9999 18.2285L14.3544 9.66699H9.64545L11.9999 18.2285ZM9.79584 17.7568L7.57123 9.66699H3.12202L9.79584 17.7568ZM14.2031 17.7568L20.8779 9.66699H16.4287L14.2031 17.7568ZM16.4287 7.66699H21.1699L18.4706 3.45996C18.2867 3.17338 17.9694 3 17.6289 3H15.1455L16.4287 7.66699ZM9.64545 7.66699H14.3544L13.0712 3H10.9287L9.64545 7.66699ZM6.37104 3C6.0305 3 5.71317 3.17337 5.52924 3.45996L2.83002 7.66699H7.57123L8.85444 3H6.37104Z" fill="currentColor"/>
</svg>
