<svg width="24" height="24" viewBox="0 0 24 24" fill="none" xmlns="http://www.w3.org/2000/svg">
<path d="M0 5C0 3.34315 1.34315 2 3 2H17V8H0V5Z" fill="currentColor"/>
<path d="M19 8V2H21C22.6569 2 24 3.34315 24 5V8H19Z" fill="currentColor"/>
<path d="M20.5 10H24V19C24 20.6569 22.6569 22 21 22H19V11.5L20.5 13L21 12L22 11.5L20.5 10Z" fill="currentColor"/>
<path fill-rule="evenodd" clip-rule="evenodd" d="M17 11.5V22H3C1.34315 22 0 20.6569 0 19V10H15.5L14 11.5L15 12L15.5 13L17 11.5ZM4 14C3.44772 14 3 14.4477 3 15C3 15.5523 3.44772 16 4 16H11C11.5523 16 12 15.5523 12 15C12 14.4477 11.5523 14 11 14H4ZM4 17C3.44772 17 3 17.4477 3 18C3 18.5523 3.44772 19 4 19H8C8.55228 19 9 18.5523 9 18C9 17.4477 8.55228 17 8 17H4Z" fill="currentColor"/>
</svg>
