<svg width="24" height="24" viewBox="0 0 24 24" fill="none" xmlns="http://www.w3.org/2000/svg">
<path d="M3.82692 22C3.31538 22 2.88301 21.8274 2.52981 21.4821C2.1766 21.1369 2 20.7143 2 20.2143C2 19.7143 2.1766 19.2917 2.52981 18.9464C2.88301 18.6012 3.31538 18.4286 3.82692 18.4286H7.84615L12.2308 5.57143H8.21154C7.7 5.57143 7.26763 5.39881 6.91442 5.05357C6.56122 4.70833 6.38462 4.28571 6.38462 3.78571C6.38462 3.28571 6.56122 2.8631 6.91442 2.51786C7.26763 2.17262 7.7 2 8.21154 2H19.1731C19.6846 2 20.117 2.17262 20.4702 2.51786C20.8234 2.8631 21 3.28571 21 3.78571C21 4.28571 20.8234 4.70833 20.4702 5.05357C20.117 5.39881 19.6846 5.57143 19.1731 5.57143H15.8846L11.5 18.4286H14.7885C15.3 18.4286 15.7324 18.6012 16.0856 18.9464C16.4388 19.2917 16.6154 19.7143 16.6154 20.2143C16.6154 20.7143 16.4388 21.1369 16.0856 21.4821C15.7324 21.8274 15.3 22 14.7885 22H3.82692Z" fill="currentColor"/>
</svg>
