<svg width="24" height="24" viewBox="0 0 24 24" fill="none" xmlns="http://www.w3.org/2000/svg">
<path d="M6.01721 15.846L7.17158 12.447L8.3258 15.846H6.01721Z" fill="currentColor"/>
<path fill-rule="evenodd" clip-rule="evenodd" d="M3 8H9V11C9 13.2091 10.7909 15 13 15H14V19C14 20.6569 12.6569 22 11 22H7V24L4.33333 22H3C1.34315 22 0 20.6569 0 19V11C0 9.34315 1.34315 8 3 8ZM8.66513 16.845L9.22304 18.4877H10.343L7.61439 11H6.72862L4 18.4877H5.11998L5.67788 16.845H8.66513Z" fill="currentColor"/>
<path fill-rule="evenodd" clip-rule="evenodd" d="M13 0C11.3431 0 10 1.34315 10 3V11C10 12.6569 11.3431 14 13 14H17V16L19.6667 14H21C22.6569 14 24 12.6569 24 11V3C24 1.34315 22.6569 0 21 0H13ZM19.0329 4.89031H20.8443V4.01354H17.4818V3H16.3625V4.01354H13V4.89031H18.1641C17.9848 5.60411 17.497 6.38358 16.9222 7.10912C16.5215 6.60333 16.1629 6.07119 15.9219 5.5535C15.6433 5.60486 15.3501 5.64688 15.0491 5.67324C15.311 6.31324 15.7501 7.01438 16.3631 7.77126C15.3153 8.94385 14.2142 9.84472 14.1943 9.86099L14.7252 10.5305C14.7647 10.4984 15.702 9.73477 16.7025 8.66294C16.7774 8.58266 16.8507 8.50283 16.9222 8.4236C16.9936 8.50283 17.0669 8.58266 17.1418 8.66294C18.1423 9.73477 19.0796 10.4984 19.1191 10.5305L19.65 9.86099C19.6301 9.84472 18.529 8.94385 17.4812 7.77126C18.355 6.6925 18.8756 5.72656 19.0329 4.89031Z" fill="currentColor"/>
</svg>
