<svg width="24" height="24" viewBox="0 0 24 24" fill="none" xmlns="http://www.w3.org/2000/svg">
<path fill-rule="evenodd" clip-rule="evenodd" d="M22 4.64835C22 2.63654 20.3454 1 18.3113 1H5.68868C3.65463 1 2 2.63654 2 4.64835V13H22V4.64835Z" fill="currentColor"/>
<path fill-rule="evenodd" clip-rule="evenodd" d="M13.6566 19.5779H10.351C9.82788 19.5779 9.40328 19.1199 9.40328 18.5557C9.40328 17.9915 9.82788 17.5336 10.351 17.5336H13.6566C14.1798 17.5336 14.6044 17.9915 14.6044 18.5557C14.6044 19.1199 14.1798 19.5779 13.6566 19.5779ZM23.8047 18.6484L22.2505 15H1.75587L0.180142 18.7002C-0.152189 19.6814 -0.0195095 20.7772 0.535218 21.633C1.08995 22.4889 1.99849 23 2.96642 23H21.0387C22.0066 23 22.9152 22.4889 23.4699 21.633C24.0246 20.7772 24.1573 19.6801 23.8047 18.6484Z" fill="currentColor"/>
</svg>
