<svg width="24" height="24" viewBox="0 0 24 24" fill="none" xmlns="http://www.w3.org/2000/svg">
<path d="M10 7.5C10 7.8717 10.3911 8.11347 10.7236 7.94727L11.7764 7.4209C11.8745 7.37183 11.9854 7.35663 12.0908 7.37598C12.1366 7.38438 12.1813 7.39963 12.2236 7.4209L13.2764 7.94727C13.6089 8.11347 14 7.8717 14 7.5V6H21.167L22.3066 9.73242C20.8186 8.64401 18.9849 8 17 8C12.0294 8 8 12.0294 8 17C8 19.8278 9.30501 22.3501 11.3447 24H3C1.89551 24 1 23.1046 1 22V13.792C1.00004 12.6038 1.17732 11.4224 1.52441 10.2861L2.83398 6H10V7.5ZM17 10C20.866 10 24 13.134 24 17C24 20.866 20.866 24 17 24C13.134 24 10 20.866 10 17C10 13.134 13.134 10 17 10ZM17 13C16.1846 13 15.4247 13.2446 14.792 13.6641C14.7661 13.293 14.4567 13 14.0791 13C13.6847 13.0002 13.3652 13.3204 13.3652 13.7148V15.3115C13.3652 15.6634 13.6212 15.9631 13.9688 16.0176L15.4297 16.2461C15.8193 16.3068 16.1851 16.04 16.2461 15.6504C16.307 15.2607 16.04 14.8951 15.6504 14.834L15.6211 14.8291C16.0195 14.5754 16.492 14.4287 17 14.4287C18.42 14.4287 19.5713 15.58 19.5713 17C19.5713 18.42 18.42 19.5713 17 19.5713C15.58 19.5713 14.4287 18.42 14.4287 17C14.4287 16.6056 14.1092 16.2854 13.7148 16.2852C13.3203 16.2852 13 16.6054 13 17C13 19.2091 14.7909 21 17 21C19.2091 21 21 19.2091 21 17C21 14.7909 19.2091 13 17 13ZM22 0C22.5522 0 23 0.447723 23 1V3C23 3.55228 22.5522 4 22 4H2C1.44775 4 1 3.55228 1 3V1C1 0.447723 1.44775 0 2 0H22Z" fill="currentColor"/>
</svg>
