<svg width="24" height="24" viewBox="0 0 24 24" fill="none" xmlns="http://www.w3.org/2000/svg">
<path d="M12 1.5C12 0.671573 12.6716 0 13.5 0C14.3284 0 15 0.671573 15 1.5V6.87868L20.9393 0.93934C21.5251 0.353553 22.4749 0.353553 23.0607 0.93934C23.6464 1.52513 23.6464 2.47487 23.0607 3.06066L17.1213 9H22.5C23.3284 9 24 9.67157 24 10.5C24 11.3284 23.3284 12 22.5 12H13.5C12.6716 12 12 11.3284 12 10.5V1.5Z" fill="currentColor"/>
<path d="M10.5 12C11.3284 12 12 12.6716 12 13.5L12 22.5C12 23.3284 11.3284 24 10.5 24C9.67157 24 9 23.3284 9 22.5L9 17.1213L3.06066 23.0607C2.47487 23.6464 1.52513 23.6464 0.93934 23.0607C0.353554 22.4749 0.353554 21.5251 0.939339 20.9393L6.87868 15L1.5 15C0.671572 15 0 14.3284 0 13.5C0 12.6716 0.671572 12 1.5 12L10.5 12Z" fill="currentColor"/>
</svg>
