<svg width="24" height="24" viewBox="0 0 24 24" fill="none" xmlns="http://www.w3.org/2000/svg">
<path d="M0.305664 0.305664C0.696095 -0.0845851 1.32923 -0.0844845 1.71973 0.305664L23.6689 22.2549C24.0594 22.6454 24.0593 23.2784 23.6689 23.6689C23.2784 24.0595 22.6454 24.0595 22.2549 23.6689L16.3496 17.7637C15.5567 18.1303 14.6936 18.3723 13.7842 18.4619C13.742 18.4661 13.6987 18.4693 13.6543 18.4727L13.8125 21H14.333C15.8058 21 17 22.1942 17 23.667C16.9998 23.8508 16.8508 23.9998 16.667 24H7.33301C7.14917 23.9998 7.00018 23.8508 7 23.667C7 22.1942 8.19423 21 9.66699 21H10.1875L10.3457 18.4727C10.3013 18.4693 10.258 18.4661 10.2158 18.4619C6.65489 18.1112 3.79086 15.4476 3.13867 11.9863C2.57394 11.9648 2.18549 11.9098 1.85156 11.7715C1.11679 11.467 0.532989 10.8832 0.228516 10.1484C0.000154227 9.59712 0 8.89783 0 7.5V6C0 5.05719 7.55191e-05 4.58586 0.292969 4.29297C0.585862 4.00008 1.05719 4 2 4H2.58496L0.305664 1.7207C-0.0848602 1.33018 -0.0848602 0.696188 0.305664 0.305664ZM17.2998 0C18.8955 0 19.6936 0.000321329 20.2383 0.429688C20.3616 0.526951 20.473 0.638375 20.5703 0.761719C20.9997 1.30637 21 2.1045 21 3.7002V4H22.4004C22.9602 4 23.2402 4.00041 23.4541 4.10938C23.6421 4.20521 23.7948 4.35793 23.8906 4.5459C23.9996 4.75976 24 5.03982 24 5.59961V9C24 10.6569 22.6569 12 21 12C20.9529 12 20.906 11.9992 20.8594 11.9971C20.5955 13.387 19.9738 14.6471 19.0947 15.6807L3.80859 0.394531C4.35219 0.000352983 5.14934 0 6.7002 0H17.2998ZM2 9C2 9.55228 2.44771 10 3 10V6H2V9ZM21 10C21.5523 10 22 9.55228 22 9V6H21V10Z" fill="currentColor"/>
</svg>
