<svg width="24" height="24" viewBox="0 0 24 24" fill="none" xmlns="http://www.w3.org/2000/svg">
<path fill-rule="evenodd" clip-rule="evenodd" d="M5.82492 0C4.46134 0 3.2148 0.770408 2.60498 1.99003L1.0135 5.173C0.346993 6.50601 0 7.9759 0 9.46625V20.4C0 22.3882 1.61177 24 3.6 24H20.4C22.3882 24 24 22.3882 24 20.4V9.46625C24 7.9759 23.653 6.50601 22.9865 5.173L21.395 1.99003C20.7852 0.770409 19.5387 0 18.1751 0H5.82492ZM12 13.2C13.3236 13.2 14.4 12.1236 14.4 10.8C14.4 10.1376 14.9364 9.6 15.6 9.6C16.2648 9.6 16.8 10.1376 16.8 10.8C16.8 13.4472 14.6472 15.6 12 15.6C9.3528 15.6 7.2 13.4472 7.2 10.8C7.2 10.1376 7.7364 9.6 8.4 9.6C9.0636 9.6 9.6 10.1376 9.6 10.8C9.6 12.1236 10.6764 13.2 12 13.2Z" fill="currentColor"/>
</svg>
