<svg width="24" height="24" viewBox="0 0 24 24" fill="none" xmlns="http://www.w3.org/2000/svg">
<g clip-path="url(#clip0_250_2388)">
<path d="M11 7V0H5.43063C4.30658 0 3.27684 0.628358 2.76276 1.62796L0 7H11Z" fill="currentColor"/>
<path d="M13 7H24L21.2372 1.62796C20.7232 0.628356 19.6934 0 18.5694 0H13V7Z" fill="currentColor"/>
<path d="M10 14.9167C10 12.5635 11.1024 10.4501 12.8524 9H0V21C0 22.6569 1.34315 24 3 24H15.5083C15.0137 23.5853 14.5271 23.1463 14.0579 22.6851C11.532 20.2018 10 17.5859 10 14.9167Z" fill="white"/>
<path fill-rule="evenodd" clip-rule="evenodd" d="M21.3743 20.7319C20.8139 21.3145 20.215 21.8453 19.616 22.315C19.4061 22.4797 19.2107 22.6252 19.0347 22.7504C18.9275 22.8267 18.8493 22.88 18.8051 22.909C18.6203 23.0303 18.3797 23.0303 18.1949 22.909C18.1507 22.88 18.0725 22.8267 17.9653 22.7504C17.7893 22.6252 17.5939 22.4797 17.384 22.315C16.785 21.8453 16.1861 21.3145 15.6257 20.7319C13.9913 19.0328 13 17.243 13 15.4167C13 12.4251 15.4624 10 18.5 10C21.5376 10 24 12.4251 24 15.4167C24 17.243 23.0087 19.0328 21.3743 20.7319ZM20.7 15.4167C20.7 16.6133 19.715 17.5833 18.5 17.5833C17.285 17.5833 16.3 16.6133 16.3 15.4167C16.3 14.22 17.285 13.25 18.5 13.25C19.715 13.25 20.7 14.22 20.7 15.4167Z" fill="currentColor"/>
</g>
<defs>
<clipPath id="clip0_250_2388">
<rect width="24" height="24" fill="currentColor"/>
</clipPath>
</defs>
</svg>
