<svg width="24" height="24" viewBox="0 0 24 24" fill="none" xmlns="http://www.w3.org/2000/svg">
<path d="M2.39998 0C1.07451 0 0 1.07452 0 2.4V8.4C0 9.72548 1.07451 10.8 2.39998 10.8H8.39993C9.7254 10.8 10.7999 9.72548 10.7999 8.4V2.4C10.7999 1.07452 9.7254 0 8.39993 0H2.39998Z" fill="currentColor"/>
<path d="M2.39998 13.2C1.07451 13.2 0 14.2745 0 15.6V21.6C0 22.9255 1.07451 24 2.39998 24H8.39993C9.7254 24 10.7999 22.9255 10.7999 21.6V15.6C10.7999 14.2745 9.7254 13.2 8.39993 13.2H2.39998Z" fill="currentColor"/>
<path d="M13.2001 2.4C13.2001 1.07452 14.2746 0 15.6001 0H21.6C22.9255 0 24 1.07452 24 2.4V8.4C24 9.72548 22.9255 10.8 21.6 10.8H15.6001C14.2746 10.8 13.2001 9.72548 13.2001 8.4V2.4Z" fill="currentColor"/>
<path fill-rule="evenodd" clip-rule="evenodd" d="M15.6001 13.2C14.2746 13.2 13.2001 14.2745 13.2001 15.6V21.6C13.2001 22.9255 14.2746 24 15.6001 24H21.6C22.9255 24 24 22.9255 24 21.6V15.6C24 14.2745 22.9255 13.2 21.6 13.2H15.6001ZM16.8805 15.8196C16.5876 15.5268 16.1127 15.5268 15.8198 15.8196C15.5269 16.1125 15.5269 16.5874 15.8198 16.8803L17.5395 18.6L15.8198 20.3196C15.5269 20.6125 15.5269 21.0874 15.8198 21.3803C16.1127 21.6732 16.5876 21.6732 16.8805 21.3803L18.6001 19.6606L20.3198 21.3803C20.6127 21.6732 21.0876 21.6732 21.3804 21.3803C21.6733 21.0874 21.6733 20.6125 21.3804 20.3196L19.6608 18.6L21.3804 16.8803C21.6733 16.5874 21.6733 16.1125 21.3804 15.8196C21.0876 15.5268 20.6127 15.5268 20.3198 15.8196L18.6001 17.5393L16.8805 15.8196Z" fill="currentColor"/>
</svg>
