<svg width="24" height="24" viewBox="0 0 24 24" fill="none" xmlns="http://www.w3.org/2000/svg">
<g clip-path="url(#clip0_250_2285)">
<path d="M13 7H24L21.2372 1.62796C20.7232 0.628356 19.6934 0 18.5694 0H13V7Z" fill="currentColor"/>
<path d="M11 7V0H5.43063C4.30658 0 3.27684 0.628358 2.76276 1.62796L0 7H11Z" fill="currentColor"/>
<path d="M12.8728 9H0V21C0 22.6569 1.34315 24 3 24H11.3427C9.30367 22.35 8 19.8273 8 17C8 13.5171 9.97844 10.4962 12.8728 9Z" fill="currentColor"/>
<path fill-rule="evenodd" clip-rule="evenodd" d="M24 17C24 13.134 20.866 10 17 10C13.134 10 10 13.134 10 17C10 20.866 13.134 24 17 24C20.866 24 24 20.866 24 17ZM20.3202 15.4826C20.5694 15.2195 20.5582 14.8041 20.2951 14.5548C20.032 14.3056 19.6166 14.3168 19.3673 14.5799L15.8935 18.2467L14.6203 16.9735C14.364 16.7172 13.9485 16.7172 13.6922 16.9735C13.4359 17.2297 13.4359 17.6453 13.6922 17.9015L15.4422 19.6515C15.5675 19.7768 15.738 19.8461 15.9151 19.8437C16.0922 19.8413 16.2608 19.7674 16.3827 19.6388L20.3202 15.4826Z" fill="currentColor"/>
</g>
<defs>
<clipPath id="clip0_250_2285">
<rect width="24" height="24" fill="currentColor"/>
</clipPath>
</defs>
</svg>
