<svg width="24" height="24" viewBox="0 0 24 24" fill="none" xmlns="http://www.w3.org/2000/svg">
<path d="M13 7H24L21.2372 1.62796C20.7232 0.628356 19.6934 0 18.5694 0H13V7Z" fill="currentColor"/>
<path d="M11 7V0H5.43063C4.30658 0 3.27684 0.628358 2.76276 1.62796L0 7H11Z" fill="currentColor"/>
<path d="M12.8728 9H0V21C0 22.6569 1.34315 24 3 24H11.3427C9.30367 22.35 8 19.8273 8 17C8 13.5171 9.97844 10.4962 12.8728 9Z" fill="currentColor"/>
<path fill-rule="evenodd" clip-rule="evenodd" d="M17 10C20.866 10 24 13.134 24 17C24 20.866 20.866 24 17 24C13.134 24 10 20.866 10 17C10 13.134 13.134 10 17 10ZM16.1074 14.1222C16.0849 13.7855 16.352 13.5 16.6894 13.5H17.3107C17.6482 13.5 17.9152 13.7855 17.8927 14.1222L17.6592 17.6222C17.6387 17.9286 17.3842 18.1667 17.0772 18.1667H16.923C16.6159 18.1667 16.3614 17.9286 16.3409 17.6222L16.1074 14.1222ZM17 20.5C17.4832 20.5 17.875 20.1082 17.875 19.625C17.875 19.1418 17.4832 18.75 17 18.75C16.5168 18.75 16.125 19.1418 16.125 19.625C16.125 20.1082 16.5168 20.5 17 20.5Z" fill="currentColor"/>
</svg>
