<svg width="27" height="27" viewBox="0 0 27 27" fill="none" xmlns="http://www.w3.org/2000/svg">
<path d="M13.0938 6.54688H24.0052L21.3372 1.69591C20.7619 0.649886 19.6627 0 18.4689 0H13.0938V6.54688Z" fill="currentColor"/>
<path d="M10.9115 6.54688V0H5.53627C4.34248 0 3.24334 0.649886 2.66803 1.69591L0 6.54688H10.9115Z" fill="currentColor"/>
<path d="M11.0452 8.72917H0V20.7318C0 22.5396 1.46557 24.0052 3.27344 24.0052H7.63802V15.2978C7.63802 14.5676 7.82126 13.849 8.17096 13.2078L9.98094 9.88954C10.2407 9.41332 10.6089 9.01857 11.0452 8.72917Z" fill="currentColor"/>
<path d="M19.0951 14.1849L26.1875 14.1849L24.671 11.4889C24.0912 10.4582 23.0006 9.82031 21.818 9.82031H19.0951V14.1849Z" fill="currentColor"/>
<path d="M16.9128 14.1849V9.82031H14.1899C13.0072 9.82031 11.9166 10.4582 11.3368 11.4889L9.82031 14.1849L16.9128 14.1849Z" fill="currentColor"/>
<path d="M26.1875 16.3672H9.82031V22.9141C9.82031 24.7219 11.2859 26.1875 13.0938 26.1875H22.9141C24.7219 26.1875 26.1875 24.7219 26.1875 22.9141V16.3672Z" fill="currentColor"/>
</svg>
