<svg width="24" height="24" viewBox="0 0 24 24" fill="none" xmlns="http://www.w3.org/2000/svg">
<path d="M11 7V0H5.79675C4.4479 0 3.21221 0.754027 2.59532 1.95355L0 7H11Z" fill="currentColor"/>
<path d="M13 7H24L21.4047 1.95355C20.7878 0.754027 19.5521 0 18.2032 0H13V7Z" fill="currentColor"/>
<path d="M24 9H0V20.4C0 22.3882 1.61177 24 3.6 24H12.0947C12.0087 23.727 11.9627 23.4349 11.9647 23.1294L12.376 20.3835L10.814 18.7842C9.29824 17.2318 10.0117 14.7115 11.9656 14.0734L14.4713 13.6494L15.4138 11.6432C16.4424 9.45312 19.558 9.45274 20.5863 11.6432L21.5277 13.6494L23.5761 13.9642C23.7232 13.9868 23.8646 14.0193 24 14.0609V9Z" fill="currentColor"/>
<path d="M18.5242 12.3409C18.3098 11.8864 17.6902 11.8864 17.4758 12.3409L16.0746 15.3114C15.9894 15.4919 15.8248 15.617 15.6345 15.6459L12.5011 16.1223C12.0217 16.1951 11.8302 16.8116 12.1772 17.1653L14.4445 19.4776C14.5822 19.618 14.6451 19.8205 14.6126 20.0188L14.0773 23.2837C13.9954 23.7833 14.4966 24.1643 14.9254 23.9284L17.728 22.3869C17.8983 22.2933 18.1017 22.2933 18.272 22.3869L21.0746 23.9284C21.5034 24.1643 22.0046 23.7833 21.9227 23.2837L21.3874 20.0188C21.3549 19.8205 21.4178 19.618 21.5555 19.4776L23.8228 17.1653C24.1698 16.8116 23.9783 16.1951 23.4989 16.1223L20.3655 15.6459C20.1752 15.617 20.0106 15.4919 19.9254 15.3114L18.5242 12.3409Z" fill="currentColor"/>
</svg>
