<svg width="24" height="24" viewBox="0 0 24 24" fill="none" xmlns="http://www.w3.org/2000/svg">
<path fill-rule="evenodd" clip-rule="evenodd" d="M13.3027 20.1441L13.7257 16.3362C13.7256 16.3367 13.7257 16.3357 13.7257 16.3362C13.7257 16.336 13.7259 16.3343 13.7259 16.3342C13.8669 15.0593 14.4239 13.8638 15.3414 12.9463L21.283 7.00474C21.3656 6.92216 21.4369 6.78522 21.4278 6.56703C21.4185 6.34403 21.3202 6.06942 21.0818 5.83103L18.169 2.91822C17.9306 2.67982 17.656 2.58147 17.433 2.57217C17.2148 2.56307 17.0778 2.63443 16.9953 2.71701L11.0537 8.65856C10.1362 9.57606 8.94066 10.1331 7.66585 10.2741C7.66564 10.2741 7.66607 10.2741 7.66585 10.2741C7.66539 10.2741 7.66429 10.2743 7.66383 10.2743L3.8559 10.6973L13.3027 20.1441ZM7.38196 7.71839C8.09484 7.63977 8.74376 7.33197 9.23544 6.84028L15.177 0.898738C16.4495 -0.373784 18.6028 -0.284507 19.9872 1.09994L22.9001 4.01275C24.2845 5.3972 24.3738 7.55049 23.1013 8.82302L17.1597 14.7646C16.668 15.2562 16.3602 15.9052 16.2816 16.618L15.7153 21.7161C15.5301 23.3871 13.4981 23.976 12.2455 22.7235L7.7404 18.2184L1.95875 24H0V22.0413L5.78165 16.2596L1.27652 11.7545C0.0226523 10.5006 0.612942 8.46991 2.28388 8.28469L7.38196 7.71839ZM14.0635 20.9049C14.0634 20.9048 14.0636 20.905 14.0635 20.9049V20.9049Z" fill="currentColor"/>
</svg>
