<svg width="24" height="24" viewBox="0 0 24 24" fill="none" xmlns="http://www.w3.org/2000/svg">
<path d="M1.27652 11.7545L5.78164 16.2596L0 22.0413V24H1.95875L7.7404 18.2184L12.2455 22.7235C13.4981 23.976 15.5301 23.3871 15.7153 21.7161L16.2816 16.618C16.3602 15.9052 16.668 15.2562 17.1597 14.7646L23.1013 8.82302C24.3738 7.55049 24.2845 5.3972 22.9001 4.01275L21.4437 2.55635L19.9872 1.09994C18.6028 -0.284507 16.4495 -0.373784 15.177 0.898738L9.23544 6.84028C8.74375 7.33197 8.09484 7.63977 7.38196 7.71839L2.28388 8.28469C0.612942 8.46991 0.0226523 10.5006 1.27652 11.7545Z" fill="currentColor"/>
</svg>
