<svg width="27" height="27" viewBox="0 0 27 27" fill="none" xmlns="http://www.w3.org/2000/svg">
<g clip-path="url(#clip0_250_2324)">
<path fill-rule="evenodd" clip-rule="evenodd" d="M25.8679 0.319589C26.294 0.745708 26.294 1.43658 25.8679 1.8627L1.8627 25.8679C1.43658 26.294 0.745708 26.294 0.319589 25.8679C-0.10653 25.4418 -0.10653 24.7509 0.319589 24.3248L24.3248 0.319589C24.7509 -0.10653 25.4418 -0.10653 25.8679 0.319589ZM25.8679 6.86646C26.294 7.29258 26.294 7.98346 25.8679 8.40958L8.40958 25.8679C7.98346 26.294 7.29258 26.294 6.86646 25.8679C6.44035 25.4418 6.44035 24.7509 6.86646 24.3248L24.3248 6.86646C24.7509 6.44035 25.4418 6.44035 25.8679 6.86646ZM25.8679 13.4133C26.294 13.8395 26.294 14.5303 25.8679 14.9565L14.9565 25.8679C14.5303 26.294 13.8395 26.294 13.4133 25.8679C12.9872 25.4418 12.9872 24.7509 13.4133 24.3248L24.3248 13.4133C24.7509 12.9872 25.4418 12.9872 25.8679 13.4133ZM25.8679 19.9602C26.294 20.3863 26.294 21.0772 25.8679 21.5033L21.5033 25.8679C21.0772 26.294 20.3863 26.294 19.9602 25.8679C19.5341 25.4418 19.5341 24.7509 19.9602 24.3248L24.3248 19.9602C24.7509 19.5341 25.4418 19.5341 25.8679 19.9602Z" fill="currentColor"/>
</g>
<defs>
<clipPath id="clip0_250_2324">
<rect width="26.1875" height="26.1875" fill="currentColor"/>
</clipPath>
</defs>
</svg>
