<svg width="24" height="24" viewBox="0 0 24 24" fill="none" xmlns="http://www.w3.org/2000/svg">
<path d="M20 14C21.6569 14 23 15.3431 23 17V19C23 20.6569 21.6569 22 20 22H19.9502C19.7186 23.1411 18.7095 24 17.5 24C16.2905 24 15.2814 23.1411 15.0498 22H8.9502C8.71858 23.1411 7.70949 24 6.5 24C5.29051 24 4.28142 23.1411 4.0498 22H4C2.34315 22 1 20.6569 1 19V17C1 15.3431 2.34315 14 4 14H20Z" fill="currentColor"/>
<path d="M20 9C20.5523 9 21 9.44772 21 10C21 10.5523 20.5523 11 20 11H4C3.44772 11 3 10.5523 3 10C3 9.44772 3.44772 9 4 9H20Z" fill="currentColor"/>
<path d="M20 0C21.6569 0 23 1.34315 23 3C23 4.65685 21.6569 6 20 6H4C2.34315 6 1 4.65685 1 3C1 1.34315 2.34315 0 4 0H20Z" fill="currentColor"/>
</svg>
