<svg width="24" height="24" viewBox="0 0 24 24" fill="none" xmlns="http://www.w3.org/2000/svg">
<path d="M4.79702 11.8556C5.32328 10.5198 5.9558 9.23448 6.69458 7.9998C7.43336 6.76512 8.26829 5.60129 9.19936 4.5083L7.62059 4.17433C7.21578 4.09336 6.82108 4.11361 6.43651 4.23505C6.05194 4.35649 5.71797 4.5589 5.4346 4.84227L1.60913 8.66774C1.30552 8.97135 1.18914 9.33568 1.25998 9.76073C1.33082 10.1858 1.56865 10.4793 1.97346 10.6412L4.79702 11.8556ZM22.6492 0.0148828C20.5037 -0.0863202 18.4645 0.328612 16.5315 1.25968C14.5985 2.19075 12.873 3.4153 11.355 4.93335C10.3834 5.9049 9.52826 6.95741 8.78948 8.09088C8.0507 9.22436 7.40806 10.4186 6.86157 11.6735C6.76036 11.9366 6.70976 12.2048 6.70976 12.478C6.70976 12.7513 6.81096 12.9891 7.01337 13.1915L10.8085 16.9866C11.0109 17.189 11.2487 17.2902 11.522 17.2902C11.7952 17.2902 12.0634 17.2396 12.3265 17.1384C13.5814 16.5919 14.7756 15.9493 15.9091 15.2105C17.0426 14.4717 18.0951 13.6166 19.0666 12.645C20.5847 11.127 21.8093 9.40146 22.7403 7.46849C23.6714 5.53551 24.0863 3.49627 23.9851 1.35076C23.9851 1.18884 23.9446 1.02691 23.8637 0.864988C23.7827 0.703063 23.6815 0.561379 23.5601 0.439936C23.4386 0.318492 23.2969 0.217289 23.135 0.136326C22.9731 0.055364 22.8112 0.0148828 22.6492 0.0148828ZM14.9376 9.06243C14.472 8.5969 14.2393 8.0251 14.2393 7.34704C14.2393 6.66898 14.472 6.09718 14.9376 5.63165C15.4031 5.16612 15.9749 4.93335 16.653 4.93335C17.331 4.93335 17.9028 5.16612 18.3683 5.63165C18.8339 6.09718 19.0666 6.66898 19.0666 7.34704C19.0666 8.0251 18.8339 8.5969 18.3683 9.06243C17.9028 9.52797 17.331 9.76073 16.653 9.76073C15.9749 9.76073 15.4031 9.52797 14.9376 9.06243ZM12.1444 19.203L13.3588 22.0265C13.5207 22.4314 13.8142 22.6742 14.2393 22.7552C14.6643 22.8362 15.0286 22.7248 15.3323 22.4212L19.1577 18.5958C19.4411 18.3124 19.6435 17.9734 19.765 17.5787C19.8864 17.184 19.9066 16.7842 19.8257 16.3794L19.5221 14.8006C18.4088 15.7317 17.2399 16.5666 16.0154 17.3054C14.7908 18.0442 13.5005 18.6767 12.1444 19.203ZM2.27707 16.5919C2.98549 15.8835 3.84571 15.5242 4.85775 15.5141C5.86978 15.504 6.73 15.8532 7.43842 16.5616C8.14684 17.27 8.50105 18.1302 8.50105 19.1423C8.50105 20.1543 8.14684 21.0145 7.43842 21.7229C6.46687 22.6945 5.31822 23.2713 3.99246 23.4535C2.6667 23.6357 1.33588 23.8178 0 24C0.182165 22.6641 0.369391 21.3333 0.561677 20.0075C0.753963 18.6818 1.32576 17.5432 2.27707 16.5919Z" fill="currentColor"/>
</svg>
