<svg width="24" height="24" viewBox="0 0 24 24" fill="none" xmlns="http://www.w3.org/2000/svg">
<path fill-rule="evenodd" clip-rule="evenodd" d="M21.3282 2.79182L12.7386 0.119477C12.2214 -0.042911 11.6547 -0.0393808 11.1466 0.127714L2.58953 2.89537C1.63325 3.20485 0.994852 4.02973 1.00003 4.94875L1.05478 12.9116C1.07172 15.331 2.05406 17.6633 3.82201 19.4801C4.62977 20.3109 5.66423 21.024 6.98791 21.6606L11.6482 23.8964C11.7915 23.9658 11.9517 24.0011 12.112 23.9999C12.2722 23.9987 12.4312 23.9623 12.5758 23.8916L17.193 21.6029C18.5024 20.9557 19.5277 20.232 20.3277 19.3895C22.0669 17.5538 23.0167 15.211 22.9998 12.7951L22.9451 4.82637C22.9398 3.90853 22.2897 3.08953 21.3282 2.79182ZM16.5309 9.96795C17.0082 9.49932 17.0082 8.73952 16.5309 8.27089C16.0536 7.80227 15.2797 7.80227 14.8024 8.27089L10.7778 12.2224L9.19756 10.6709C8.72025 10.2023 7.94638 10.2023 7.46907 10.6709C6.99177 11.1395 6.99177 11.8993 7.46907 12.3679L9.91352 14.7679C10.3908 15.2366 11.1647 15.2366 11.642 14.7679L16.5309 9.96795Z" fill="currentColor"/>
</svg>
