<svg width="24" height="24" viewBox="0 0 24 24" fill="none" xmlns="http://www.w3.org/2000/svg">
<path d="M8.49989 20C9.60445 20 10.4999 20.8954 10.4999 22C10.4999 23.1046 9.60445 24 8.49989 24C7.39534 24 6.49992 23.1046 6.49992 22C6.49992 20.8954 7.39534 20 8.49989 20Z" fill="currentColor"/>
<path d="M18.4998 20C19.6043 20 20.4997 20.8954 20.4997 22C20.4997 23.1046 19.6043 24 18.4998 24C17.3952 24 16.4998 23.1046 16.4998 22C16.4998 20.8954 17.3952 20 18.4998 20Z" fill="currentColor"/>
<path d="M2.77243 0C4.26064 0 5.52359 1.0911 5.74016 2.56348L5.80462 3H22.4997C22.803 3 23.0902 3.13744 23.28 3.37402C23.4697 3.61057 23.542 3.92076 23.4763 4.2168L21.4763 13.2168C21.3804 13.6484 21.012 13.9655 20.571 13.9971L7.55752 14.9248L7.86318 17H19.4997C20.052 17 20.4997 17.4477 20.4997 18C20.4997 18.5523 20.052 19 19.4997 19H7.86318C6.8712 18.9998 6.02903 18.2725 5.88469 17.291L3.76167 2.85449C3.68948 2.36371 3.2685 2 2.77243 2H1.49999C0.947709 2 0.5 1.55228 0.5 1C0.5 0.447715 0.947709 0 1.49999 0H2.77243Z" fill="currentColor"/>
</svg>
