<svg width="24" height="24" viewBox="0 0 24 24" fill="none" xmlns="http://www.w3.org/2000/svg">
<g clip-path="url(#clip0_250_2313)">
<path d="M16.1348 2.83692C16.4114 2.35914 17.023 2.19619 17.501 2.47266C20.7861 4.37314 23 7.92737 23 12C23 15.8858 20.9833 19.298 17.9414 21.2549L18.2002 21.5996C18.9418 22.5885 18.2361 24 17 24H7C5.76393 24 5.05816 22.5885 5.7998 21.5996L6.05762 21.2549C3.0161 19.2979 1 15.8855 1 12C1.00003 7.92737 3.21394 4.37314 6.49902 2.47266C6.97696 2.19619 7.58859 2.35914 7.86523 2.83692C8.11682 3.27184 8.00337 3.81598 7.62109 4.11915L10.0566 8.50294C10.632 8.18252 11.2947 8.00001 12 8.00001C12.705 8.00001 13.3672 8.18277 13.9424 8.50294L16.3779 4.11915C15.9961 3.81589 15.8833 3.27161 16.1348 2.83692ZM13.9424 15.4961C13.3671 15.8164 12.7052 16 12 16C11.2945 16 10.6321 15.8167 10.0566 15.4961L7.62891 19.8672C8.92334 20.5879 10.4133 21 12 21C13.5864 21 15.0759 20.5877 16.3701 19.8672L13.9424 15.4961ZM3.77344 8.34376C3.27612 9.46115 3.00001 10.6985 3 12C3 13.3014 3.27838 14.5374 3.77539 15.6543L8.34473 13.624C8.12385 13.1276 8 12.5784 8 12C8 11.4213 8.12362 10.8716 8.34473 10.375L3.77344 8.34376ZM15.6543 10.375C15.8755 10.8717 16 11.4212 16 12C16 12.5785 15.8753 13.1275 15.6543 13.624L20.2236 15.6543C20.7207 14.5373 21 13.3016 21 12C21 10.6983 20.723 9.46125 20.2256 8.34376L15.6543 10.375ZM12 10C10.8954 10 10 10.8954 10 12C10 13.1046 10.8954 14 12 14C13.1046 14 14 13.1046 14 12C14 10.8954 13.1046 10 12 10ZM13.4004 5.62285e-06C13.6377 4.53398e-06 13.8851 -0.000809215 14.0869 0.0175837C14.2504 0.0324947 14.5352 0.0690216 14.8086 0.238287L14.9248 0.319342L15.0508 0.429693C15.2891 0.66367 15.4432 0.970682 15.4873 1.30176L15.5 1.46876L15.4951 1.61036C15.4665 1.93058 15.3244 2.1806 15.2383 2.32032C15.1318 2.49288 14.9823 2.68999 14.8398 2.87989L13.4404 4.74708C13.3431 4.87683 13.2307 5.02772 13.123 5.14747C13.0111 5.27195 12.8245 5.45526 12.5439 5.56446C12.1942 5.70047 11.8058 5.70047 11.4561 5.56446C11.1755 5.45526 10.9889 5.27195 10.877 5.14747C10.7693 5.02772 10.6569 4.87683 10.5596 4.74708L9.16016 2.87989C9.01773 2.68999 8.86816 2.49288 8.76172 2.32032C8.66325 2.16063 8.49193 1.85691 8.5 1.46876L8.5127 1.30176C8.56415 0.915601 8.76506 0.562265 9.0752 0.319342C9.38088 0.079993 9.72626 0.0346231 9.91309 0.0175837C10.1149 -0.000809198 10.3623 4.53398e-06 10.5996 5.62285e-06H13.4004Z" fill="currentColor"/>
</g>
<defs>
<clipPath id="clip0_250_2313">
<rect width="24" height="24" fill="currentColor"/>
</clipPath>
</defs>
</svg>
