<svg width="24" height="25" viewBox="0 0 24 25" fill="none" xmlns="http://www.w3.org/2000/svg">
<path d="M12.379 21.383L12.1368 23H4C2.89543 23 2 22.1046 2 21L1.9999 12.7638C2.76868 12.7638 3.46992 12.4746 4 12C4.28856 12.2582 4.6274 12.4615 5.00003 12.5931L5 18H10.0067C10.0503 18.6318 10.308 19.2624 10.817 19.7837L12.379 21.383Z" fill="currentColor"/>
<path d="M19.5 1C20.4443 1 21.3334 1.44458 21.9 2.2L23.4 4.2C23.7895 4.71929 24 5.35089 24 6V9C24 10.1046 23.1046 11 22 11C20.8954 11 20 10.1046 20 9C20 10.1046 19.1046 11 18 11C16.8954 11 16 10.1046 16 9C16 10.1046 15.1046 11 14 11C12.8954 11 12 10.1046 12 9C12 10.1046 11.1046 11 10 11C8.89543 11 8 10.1046 8 9C8 10.1046 7.10457 11 6 11C4.89543 11 4 10.1046 4 9C4 10.1046 3.10457 11 2 11C0.895431 11 0 10.1046 0 9V6C0 5.35089 0.210534 4.71929 0.6 4.2L2.1 2.2C2.66656 1.44458 3.55573 1 4.5 1H19.5Z" fill="currentColor"/>
<path d="M12.7277 16.9403L15.8283 16.4635L17.2242 13.4923C17.5327 12.8352 18.4673 12.8352 18.7758 13.4923L20.17 16.4635L23.2723 16.9403C23.9123 17.0387 24.2002 17.7708 23.848 18.2743L23.7553 18.3861L21.4863 20.7074L22.0236 24.0026C22.1311 24.6616 21.4853 25.1655 20.8897 24.9483L20.7631 24.8905L18 23.3624L15.2369 24.8905C14.6526 25.2137 13.9606 24.7752 13.9646 24.1412L13.9764 24.0026L14.512 20.7074L12.2447 18.3861C11.7924 17.9228 12.0023 17.1646 12.5864 16.9739L12.7277 16.9403Z" fill="currentColor"/>
</svg>
