<svg width="24" height="24" viewBox="0 0 24 24" fill="none" xmlns="http://www.w3.org/2000/svg">
<g clip-path="url(#clip0_250_2391)">
<path fill-rule="evenodd" clip-rule="evenodd" d="M4.70886 6.01887C4.88853 6.19856 5.12607 6.2884 5.36114 6.2884C5.59868 6.2884 5.83376 6.19856 6.01467 6.01887C6.37529 5.65703 6.37529 5.07242 6.01467 4.71181L4.81961 3.51922C4.459 3.15861 3.8744 3.15984 3.51379 3.51922C3.15318 3.88106 3.15318 4.46443 3.51379 4.82504L4.70886 6.01887Z" fill="currentColor"/>
<path fill-rule="evenodd" clip-rule="evenodd" d="M12.0002 3.53253C12.5097 3.53253 12.9232 3.11899 12.9232 2.60946V0.923337C12.9232 0.413806 12.5097 0.000274658 12.0002 0.000274658C11.4907 0.000274658 11.0771 0.413806 11.0771 0.923337V2.60946C11.0771 3.11899 11.4907 3.53253 12.0002 3.53253Z" fill="currentColor"/>
<path fill-rule="evenodd" clip-rule="evenodd" d="M3.53496 12.0002C3.53496 11.4907 3.12142 11.0772 2.61189 11.0772H0.923306C0.413776 11.0772 0.000244141 11.4907 0.000244141 12.0002C0.000244141 12.5097 0.413776 12.9233 0.923306 12.9233H2.61189C3.12142 12.9233 3.53496 12.5097 3.53496 12.0002Z" fill="currentColor"/>
<path fill-rule="evenodd" clip-rule="evenodd" d="M18.6378 6.28899C18.8729 6.28899 19.1104 6.19914 19.2901 6.01945L20.4852 4.82563C20.8458 4.46502 20.8458 3.88041 20.4852 3.5198C20.1246 3.16042 19.5399 3.15919 19.1793 3.5198L17.9855 4.7124C17.6249 5.07301 17.6249 5.65761 17.9855 6.01822C18.1652 6.19914 18.4015 6.28899 18.6378 6.28899Z" fill="currentColor"/>
<path fill-rule="evenodd" clip-rule="evenodd" d="M19.2907 17.9805C18.9289 17.6211 18.3443 17.6211 17.9849 17.9805C17.6243 18.3424 17.6243 18.927 17.9849 19.2876L19.18 20.4802C19.3609 20.6599 19.5972 20.7497 19.8323 20.7497C20.0698 20.7497 20.3049 20.6599 20.4858 20.4802C20.8464 20.1183 20.8464 19.5349 20.4858 19.1743L19.2907 17.9805Z" fill="currentColor"/>
<path fill-rule="evenodd" clip-rule="evenodd" d="M4.70886 17.9805L3.51379 19.1743C3.15318 19.5349 3.15318 20.1183 3.51379 20.4802C3.69471 20.6599 3.92978 20.7497 4.16733 20.7497C4.40239 20.7497 4.63869 20.6599 4.81961 20.4802L6.01467 19.2876C6.37529 18.927 6.37529 18.3424 6.01467 17.9805C5.6553 17.6211 5.0707 17.6211 4.70886 17.9805Z" fill="currentColor"/>
<path fill-rule="evenodd" clip-rule="evenodd" d="M23.077 11.0772H21.3884C20.8789 11.0772 20.4654 11.4907 20.4654 12.0002C20.4654 12.5097 20.8789 12.9233 21.3884 12.9233H23.077C23.5866 12.9233 24.0001 12.5097 24.0001 12.0002C24.0001 11.4907 23.5866 11.0772 23.077 11.0772Z" fill="currentColor"/>
<path fill-rule="evenodd" clip-rule="evenodd" d="M12.0002 20.4677C11.4907 20.4677 11.0771 20.8813 11.0771 21.3908V23.0769C11.0771 23.5865 11.4907 24 12.0002 24C12.5097 24 12.9232 23.5865 12.9232 23.0769V21.3908C12.9232 20.8813 12.5097 20.4677 12.0002 20.4677Z" fill="currentColor"/>
<path fill-rule="evenodd" clip-rule="evenodd" d="M12 6.21516C8.81354 6.21516 6.22158 8.80958 6.22158 11.9997C6.22158 15.1898 8.81354 17.7842 12 17.7842C15.1876 17.7842 17.7796 15.1898 17.7796 11.9997C17.7796 8.80958 15.1876 6.21516 12 6.21516Z" fill="currentColor"/>
</g>
<defs>
<clipPath id="clip0_250_2391">
<rect width="24" height="24" fill="currentColor"/>
</clipPath>
</defs>
</svg>
