<svg width="24" height="24" viewBox="0 0 24 24" fill="none" xmlns="http://www.w3.org/2000/svg">
<path d="M1 6C1 9.75424 5.4332 12.8172 11 12.9912V13H18V23H11.4229V22.998C8.66984 22.985 6.13276 22.2782 4.24805 21.0879C2.35873 19.8945 1 18.1208 1 16V6Z" fill="currentColor"/>
<path d="M23 23H20V13H23V23Z" fill="currentColor"/>
<path fill-rule="evenodd" clip-rule="evenodd" d="M11.5 1C14.0597 1 16.2869 1.69484 17.8154 2.71387C19.358 3.74224 20 4.94377 20 6C20 7.05623 19.358 8.25776 17.8154 9.28613C16.2869 10.3052 14.0597 11 11.5 11C8.94033 11 6.71315 10.3052 5.18457 9.28613C3.64201 8.25776 3 7.05623 3 6C3 4.94377 3.64201 3.74224 5.18457 2.71387C6.71315 1.69484 8.94033 1 11.5 1ZM11.5 4.5C10.9159 4.5 10.342 4.61711 9.88477 4.8457C9.43454 5.07082 9 5.46411 9 6C9 6.53589 9.43454 6.92918 9.88477 7.1543C10.342 7.38289 10.9159 7.5 11.5 7.5C12.0841 7.5 12.658 7.38289 13.1152 7.1543C13.5655 6.92918 14 6.53589 14 6C14 5.46411 13.5655 5.07082 13.1152 4.8457C12.658 4.61711 12.0841 4.5 11.5 4.5Z" fill="currentColor"/>
</svg>
