<svg width="24" height="24" viewBox="0 0 24 24" fill="none" xmlns="http://www.w3.org/2000/svg">
<path fill-rule="evenodd" clip-rule="evenodd" d="M0.00012207 20.0002C0.00012207 22.2094 1.79098 24.0002 4.00012 24.0002L20.0001 24.0002C22.2093 24.0002 24.0001 22.2094 24.0001 20.0002L24.0001 4.00021C24.0001 1.79107 22.2093 0.000213623 20.0001 0.000213623L4.00012 0.000213623C1.79098 0.000213623 0.00012207 1.79107 0.00012207 4.00021L0.00012207 20.0002ZM15.0569 11.0002H13.5001L13.5001 18.0002C13.5001 18.5525 13.0524 19.0002 12.5001 19.0002H11.5001C10.9478 19.0002 10.5001 18.5525 10.5001 18.0002L10.5001 11.0002H8.94331C8.12994 11.0002 7.65682 10.0808 8.12958 9.41898L11.1864 5.13944C11.5852 4.58109 12.415 4.58109 12.8139 5.13944L15.8707 9.41898C16.3434 10.0808 15.8703 11.0002 15.0569 11.0002Z" fill="currentColor"/>
</svg>
