<svg width="24" height="24" viewBox="0 0 24 24" fill="none" xmlns="http://www.w3.org/2000/svg">
<path d="M10.6459 0.410554C11.4656 -0.136858 12.5343 -0.136845 13.3539 0.410554C13.8914 0.76959 14.55 0.899873 15.184 0.773836C16.1507 0.581774 17.1382 0.991593 17.686 1.81095C18.0451 2.34826 18.6039 2.72087 19.2377 2.84708C20.2042 3.03962 20.9602 3.79562 21.1528 4.76212C21.2789 5.396 21.6516 5.95467 22.1889 6.31387C23.0083 6.86164 23.417 7.84906 23.225 8.81583C23.099 9.44967 23.2304 10.1085 23.5893 10.6459C24.1367 11.4656 24.1367 12.5342 23.5893 13.3539C23.2303 13.8913 23.0991 14.5501 23.225 15.184C23.4172 16.1508 23.0084 17.1381 22.1889 17.6859C21.6516 18.0451 21.279 18.6039 21.1528 19.2377C20.9602 20.2043 20.2043 20.9602 19.2377 21.1527C18.6038 21.2789 18.0452 21.6516 17.686 22.1889C17.1382 23.0085 16.1509 23.4172 15.184 23.225C14.5501 23.099 13.8914 23.2303 13.3539 23.5893C12.5342 24.1368 11.4657 24.1367 10.6459 23.5893C10.1085 23.2304 9.44973 23.099 8.81585 23.225C7.84895 23.4172 6.86175 23.0084 6.3139 22.1889C5.9547 21.6516 5.39599 21.2789 4.76214 21.1527C3.79551 20.9602 3.03967 20.2043 2.8471 19.2377C2.72084 18.604 2.34821 18.045 1.81097 17.6859C0.99156 17.1381 0.581792 16.1508 0.77386 15.184C0.89975 14.5501 0.769532 13.8913 0.410578 13.3539C-0.136798 12.5342 -0.136921 11.4656 0.410578 10.6459C0.769515 10.1084 0.899884 9.44974 0.77386 8.81583C0.581873 7.84902 0.991425 6.8616 1.81097 6.31387C2.34833 5.95468 2.72094 5.39605 2.8471 4.76212C3.03973 3.79554 3.7955 3.03954 4.76214 2.84708C5.39613 2.7209 5.95471 2.34839 6.3139 1.81095C6.86172 0.991507 7.84906 0.581729 8.81585 0.773836C9.44987 0.899882 10.1084 0.769635 10.6459 0.410554ZM12.4116 6.2338C12.2434 5.89313 11.7574 5.89313 11.5893 6.2338L10.06 9.33145L6.64202 9.82755C6.26607 9.88218 6.11608 10.3446 6.38812 10.6098L8.86175 13.0209L8.27777 16.4252C8.21355 16.7996 8.60654 17.0854 8.94281 16.9086L12.0004 15.3012L15.058 16.9086C15.3942 17.0851 15.7873 16.7995 15.7231 16.4252L15.1391 13.0209L17.6127 10.6098C17.8844 10.3446 17.7337 9.88216 17.3578 9.82755L13.9399 9.33145L12.4116 6.2338ZM11.9116 1.00235C11.941 1.00212 11.9709 1.0004 12.0004 1.0004C12.0275 1.0004 12.0545 1.00216 12.0815 1.00235C12.0249 0.999126 11.9681 0.998895 11.9116 1.00235Z" fill="currentColor"/>
</svg>
